<?xml version="1.0" encoding="UTF-8"?>
<svg version="1.1" xmlns="http://www.w3.org/2000/svg" width="1200" height="630">
<path d="M0 0 C396 0 792 0 1200 0 C1200 207.9 1200 415.8 1200 630 C804 630 408 630 0 630 C0 422.1 0 214.2 0 0 Z " fill="#F8F7F7" transform="translate(0,0)"/>
<path d="M0 0 C0.98840529 -0.00297112 1.97681059 -0.00594224 2.99516755 -0.0090034 C6.29328059 -0.01764554 9.59135714 -0.01919488 12.88948059 -0.02069092 C15.26049883 -0.02532247 17.63151632 -0.03034759 20.00253296 -0.03573608 C27.10800352 -0.05020004 34.21346629 -0.0562423 41.31894895 -0.0611316 C44.67590368 -0.06371624 48.03285696 -0.06750585 51.38981056 -0.07125092 C62.5685508 -0.08344132 73.74728915 -0.09373889 84.92603588 -0.09712601 C85.64056925 -0.09734557 86.35510263 -0.09756514 87.09128853 -0.09779136 C87.80742639 -0.09800964 88.52356425 -0.09822791 89.26140326 -0.09845281 C90.71229883 -0.09889625 92.1631944 -0.09934282 93.61408997 -0.09979248 C94.69360618 -0.10012463 94.69360618 -0.10012463 95.79493079 -0.10046348 C107.42647857 -0.10440184 119.05796333 -0.12182741 130.68948682 -0.145152 C142.6668454 -0.16897351 154.64417253 -0.18133285 166.62155515 -0.18249393 C173.33190121 -0.18340501 180.04215286 -0.18933887 186.75247765 -0.20731354 C193.07677364 -0.22392425 199.40091527 -0.22588727 205.72522545 -0.21717453 C208.03043535 -0.21641091 210.335654 -0.22065622 212.64084244 -0.23063278 C244.40094855 -0.35988288 274.11692066 4.00210349 297.81916809 26.84991455 C317.46358755 46.51805597 325.93663533 72.45164739 326.05915952 99.84867227 C326.05829304 100.75169788 326.05742655 101.6547235 326.05653381 102.58511353 C326.0609905 104.07156638 326.0609905 104.07156638 326.06553721 105.58804858 C326.07414209 108.87684344 326.07572545 112.16560155 326.07722473 115.45440674 C326.08185881 117.82586747 326.08688425 120.19732747 326.0922699 122.56878662 C326.1067022 129.65965589 326.11277137 136.75051732 326.11766541 143.84139866 C326.12025319 147.19386405 326.12404231 150.546328 326.12778473 153.89879227 C326.13996862 165.06478664 326.15026909 176.23077914 326.15365982 187.39678001 C326.15387939 188.10970802 326.15409895 188.82263604 326.15432517 189.55716792 C326.15454345 190.27166149 326.15476173 190.98615505 326.15498662 191.72229993 C326.15543006 193.16978606 326.15587663 194.61727218 326.15632629 196.0647583 C326.15654772 196.78273927 326.15676915 197.50072024 326.15699729 198.24045821 C326.16093827 209.85241568 326.1783748 221.46431015 326.20168582 233.07624333 C326.22550654 245.04013673 326.23786655 257.00399866 326.23902774 268.96791613 C326.2399386 275.66815718 326.24586763 282.36830367 326.26384735 289.06852341 C326.2804568 295.38054761 326.28242169 301.69241715 326.27370834 308.00445557 C326.27294476 310.30483035 326.27718962 312.6052139 326.2871666 314.90556717 C326.41663528 346.65073047 322.04212754 376.3540335 299.20661926 400.04351807 C276.4585793 422.76412137 247.13794594 428.49498107 216.05198669 428.54702759 C213.85694802 428.54119811 211.66191017 428.53505382 209.46687317 428.52862549 C207.09393575 428.5327022 204.72100024 428.53805018 202.34806824 428.54455566 C195.96789164 428.55810437 189.58786237 428.55298257 183.20768356 428.54341841 C179.20810518 428.53885602 175.20854747 428.53910679 171.20896912 428.54188919 C170.54068944 428.54234889 169.87240977 428.54280859 169.1838792 428.54328222 C167.82540376 428.54424159 166.46692833 428.54521424 165.10845292 428.54619999 C152.43188233 428.55471225 139.75537731 428.54498567 127.07881749 428.52879889 C116.25077984 428.51539952 105.42283876 428.51772879 94.59480286 428.53155518 C81.95715725 428.54768519 69.3195688 428.55388867 56.68191433 428.54471838 C55.32901447 428.54376295 53.9761146 428.54281983 52.62321472 428.54188919 C51.95792151 428.54142636 51.2926283 428.54096354 50.60717469 428.54048669 C45.96555448 428.53791893 41.32397256 428.54236987 36.68235779 428.54932785 C30.41122024 428.55807404 24.14026279 428.55183759 17.86914444 428.53464508 C15.58489402 428.53072073 13.30062812 428.53174349 11.01638412 428.53843307 C-21.04750773 428.62358685 -50.16221464 423.97225439 -74.08390808 401.14044189 C-74.97980652 400.28708252 -75.87570496 399.43372314 -76.79875183 398.55450439 C-83.86856241 391.29950617 -88.52153657 383.08913688 -93.08390808 374.14044189 C-93.52734558 373.29352783 -93.97078308 372.44661377 -94.42765808 371.57403564 C-103.19218858 353.54698996 -102.38037574 331.71139523 -102.34269714 312.17950439 C-102.34541238 309.79919325 -102.34897629 307.41888295 -102.35331726 305.03857422 C-102.3623801 298.61714336 -102.35892233 292.19577728 -102.35255909 285.7743454 C-102.34898471 281.75389871 -102.34968109 277.73346015 -102.35153961 273.7130127 C-102.35184608 273.04261196 -102.35215254 272.37221122 -102.3524683 271.68149531 C-102.35310784 270.31898355 -102.35375627 268.9564718 -102.35441348 267.59396005 C-102.36009714 254.86035011 -102.35358987 242.12676911 -102.34281275 229.39316392 C-102.33387903 218.50096606 -102.33543163 207.60881086 -102.34465027 196.71661377 C-102.35538778 184.02412656 -102.359548 171.33166463 -102.35342574 158.63917351 C-102.35278874 157.28207271 -102.35216 155.9249719 -102.35153961 154.56787109 C-102.35123106 153.90039939 -102.35092251 153.23292768 -102.35060461 152.54522955 C-102.34888808 147.87377332 -102.35186959 143.20233817 -102.35649872 138.53088379 C-102.36231 132.22703401 -102.35820652 125.92326414 -102.34671021 119.61942291 C-102.34408375 117.31694928 -102.34479388 115.01446883 -102.34923553 112.71199799 C-102.37086919 100.35025148 -102.05952871 88.36166778 -100.08390808 76.14044189 C-99.94937351 75.29001312 -99.81483894 74.43958435 -99.67622757 73.56338501 C-96.53947629 55.37031848 -85.95584434 38.8821707 -73.08390808 26.14044189 C-72.02429871 25.04796143 -72.02429871 25.04796143 -70.94328308 23.93341064 C-56.71580731 10.16751329 -37.26721399 3.76528617 -18.08390808 1.14044189 C-16.92522563 0.97195362 -15.76654318 0.80346535 -14.57274914 0.62987137 C-9.70974592 0.02776 -4.89482677 -0.00465173 0 0 Z " fill="#FE5201" transform="translate(488.0839080810547,100.85955810546875)"/>
<path d="M0 0 C1.11774307 -0.00191345 2.23548615 -0.0038269 3.38710022 -0.00579834 C5.73943305 -0.00715295 8.09177354 -0.00350738 10.4440918 0.00488281 C14.02084355 0.01558219 17.59709193 0.0049677 21.17382812 -0.0078125 C23.47005318 -0.00649058 25.76627792 -0.00392752 28.0625 0 C29.12009018 -0.00404846 30.17768036 -0.00809692 31.26731873 -0.01226807 C41.33067916 0.05046728 51.91656227 0.88344793 59.8203125 7.765625 C63.87265042 12.06687803 65.64297874 16.60389455 67.09765625 22.265625 C67.27020432 22.86375504 67.44275238 23.46188507 67.62052917 24.07814026 C68.16226552 26.56183914 68.24664647 28.83635711 68.2746582 31.37866211 C68.29391106 32.90691872 68.29391106 32.90691872 68.31355286 34.46604919 C68.32093979 35.56393265 68.32832672 36.6618161 68.3359375 37.79296875 C68.34400925 38.93286758 68.35208099 40.07276642 68.36039734 41.24720764 C68.37422938 43.6638945 68.38495546 46.08060082 68.39282227 48.49731445 C68.40430316 50.95180036 68.42469252 53.40626207 68.4543457 55.8605957 C68.84910475 88.54179333 68.84910475 88.54179333 60.09765625 98.265625 C51.17799822 105.77805543 39.4065562 106.73109727 28.19140625 106.6640625 C27.10484741 106.66693268 26.01828857 106.66980286 24.89880371 106.67276001 C22.61986769 106.67478579 20.34091368 106.66936109 18.06201172 106.65673828 C14.60604366 106.64066401 11.15124489 106.65663889 7.6953125 106.67578125 C5.46484121 106.67379856 3.23437064 106.66995434 1.00390625 106.6640625 C-0.01207642 106.67013519 -1.02805908 106.67620789 -2.0748291 106.6824646 C-11.60342653 106.59065168 -21.67859544 105.44633304 -29.21875 99.12890625 C-37.26756563 90.22105229 -38.21272917 78.69510855 -38.203125 67.27734375 C-38.20741013 66.13836136 -38.21169525 64.99937897 -38.21611023 63.82588196 C-38.22183298 61.42469953 -38.22236901 59.02349976 -38.21801758 56.62231445 C-38.21486277 52.97511773 -38.23832602 49.32873699 -38.26367188 45.68164062 C-38.26594578 43.33854268 -38.26664794 40.99544258 -38.265625 38.65234375 C-38.27483475 37.57490402 -38.28404449 36.49746429 -38.29353333 35.38737488 C-38.23001934 24.83927758 -36.63046417 14.95877655 -28.90234375 7.265625 C-20.41373408 0.24550899 -10.61394075 -0.04055261 0 0 Z " fill="#FF5403" transform="translate(584.90234375,143.734375)"/>
<path d="M0 0 C1.92285854 1.22066816 3.37251623 2.42637441 4.83984375 4.16796875 C4.83984375 4.82796875 4.83984375 5.48796875 4.83984375 6.16796875 C5.49984375 6.16796875 6.15984375 6.16796875 6.83984375 6.16796875 C7.16984375 5.17796875 7.49984375 4.18796875 7.83984375 3.16796875 C9.58203125 1.81640625 9.58203125 1.81640625 11.71484375 0.54296875 C12.76285156 -0.09511719 12.76285156 -0.09511719 13.83203125 -0.74609375 C17.86981324 -2.92995249 21.25214917 -2.99578941 25.77734375 -3.01953125 C27.00324219 -3.03371094 28.22914063 -3.04789062 29.4921875 -3.0625 C32.83984375 -2.83203125 32.83984375 -2.83203125 36.83984375 -0.83203125 C36.83984375 22.59796875 36.83984375 46.02796875 36.83984375 70.16796875 C34.19984375 70.16796875 31.55984375 70.16796875 28.83984375 70.16796875 C28.83397751 69.59833908 28.82811127 69.02870941 28.82206726 68.44181824 C28.75820411 62.52069679 28.67380337 56.60012246 28.57739258 50.67944336 C28.54410867 48.46890469 28.51608763 46.25828032 28.4934082 44.04760742 C28.45992616 40.87251209 28.40761323 37.69820458 28.3515625 34.5234375 C28.34517258 33.53272751 28.33878265 32.54201752 28.3321991 31.52128601 C28.31240494 30.60055801 28.29261078 29.67983002 28.2722168 28.73120117 C28.26111374 27.92067795 28.25001068 27.11015472 28.23857117 26.27507019 C27.74531304 23.66841498 26.91852389 22.7708005 24.83984375 21.16796875 C22.66489294 20.69489419 22.66489294 20.69489419 20.33984375 20.79296875 C19.56640625 20.78523438 18.79296875 20.7775 17.99609375 20.76953125 C15.34978432 21.25852321 14.49954835 22.093338 12.83984375 24.16796875 C11.68692691 26.47380244 11.68587037 27.86663762 11.63452148 30.43408203 C11.61457626 31.31484406 11.59463104 32.19560608 11.57408142 33.10305786 C11.55736893 34.05518158 11.54065643 35.0073053 11.5234375 35.98828125 C11.49226585 37.44897537 11.49226585 37.44897537 11.46046448 38.93917847 C11.39495777 42.05703522 11.33607878 45.17497778 11.27734375 48.29296875 C11.2341596 50.40365479 11.19054535 52.51433208 11.14648438 54.625 C11.03846398 59.80590282 10.93939882 64.98686859 10.83984375 70.16796875 C4.23984375 70.16796875 -2.36015625 70.16796875 -9.16015625 70.16796875 C-9.16015625 75.11796875 -9.16015625 80.06796875 -9.16015625 85.16796875 C-4.54015625 85.16796875 0.07984375 85.16796875 4.83984375 85.16796875 C4.83984375 92.75796875 4.83984375 100.34796875 4.83984375 108.16796875 C-0.11015625 108.16796875 -5.06015625 108.16796875 -10.16015625 108.16796875 C-10.10033605 112.10712864 -10.01337592 116.04241377 -9.91015625 119.98046875 C-9.89597656 121.10001953 -9.88179687 122.21957031 -9.8671875 123.37304688 C-9.83496094 124.44619141 -9.80273438 125.51933594 -9.76953125 126.625 C-9.74858398 127.6147583 -9.72763672 128.6045166 -9.70605469 129.62426758 C-9.33218019 132.72258838 -9.33218019 132.72258838 -5.16015625 135.16796875 C-1.86015625 135.49796875 1.43984375 135.82796875 4.83984375 136.16796875 C4.83984375 143.09796875 4.83984375 150.02796875 4.83984375 157.16796875 C-19.68289427 158.27333424 -19.68289427 158.27333424 -26.48046875 153.01953125 C-32.11460504 146.80887869 -33.29128471 140.16331233 -33.2578125 131.99609375 C-33.25639755 131.31367615 -33.2549826 130.63125854 -33.25352478 129.92816162 C-33.24794709 127.75805191 -33.23539879 125.58804705 -33.22265625 123.41796875 C-33.21763836 121.94270983 -33.21307596 120.46744928 -33.20898438 118.9921875 C-33.197985 115.38408077 -33.18073578 111.776035 -33.16015625 108.16796875 C-36.79015625 108.16796875 -40.42015625 108.16796875 -44.16015625 108.16796875 C-44.16015625 100.90796875 -44.16015625 93.64796875 -44.16015625 86.16796875 C-40.53015625 86.16796875 -36.90015625 86.16796875 -33.16015625 86.16796875 C-33.16015625 81.87796875 -33.16015625 77.58796875 -33.16015625 73.16796875 C-28.60543148 71.36326648 -24.10169892 69.83048243 -19.3671875 68.5625 C-18.38854736 68.29928955 -17.40990723 68.0360791 -16.40161133 67.76489258 C-15.66193115 67.56790771 -14.92225098 67.37092285 -14.16015625 67.16796875 C-14.08606648 61.099067 -14.03158266 55.03042778 -13.99536133 48.96118164 C-13.98026354 46.89603084 -13.95978351 44.83091215 -13.93383789 42.76586914 C-13.8974983 39.79956136 -13.88043995 36.83367704 -13.8671875 33.8671875 C-13.84396172 32.47955452 -13.84396172 32.47955452 -13.82026672 31.06388855 C-13.81992683 29.77288994 -13.81992683 29.77288994 -13.81958008 28.45581055 C-13.81291824 27.698582 -13.80625641 26.94135345 -13.7993927 26.16117859 C-14.26075843 23.61214413 -15.13436322 22.73555189 -17.16015625 21.16796875 C-19.56316764 20.65639986 -19.56316764 20.65639986 -22.16015625 20.73046875 C-23.02640625 20.71113281 -23.89265625 20.69179688 -24.78515625 20.671875 C-27.27340383 20.95293814 -27.27340383 20.95293814 -28.78157043 22.91241455 C-30.33115006 25.44773793 -30.55120044 26.81031498 -30.5925293 29.75292969 C-30.61232346 30.6535614 -30.63211761 31.55419312 -30.6525116 32.4821167 C-30.66209648 33.92762909 -30.66209648 33.92762909 -30.671875 35.40234375 C-30.6898262 36.39550598 -30.7077774 37.38866821 -30.72627258 38.41192627 C-30.78040631 41.58056406 -30.81428153 44.74905093 -30.84765625 47.91796875 C-30.88082657 50.06772934 -30.91531596 52.21747002 -30.95117188 54.3671875 C-31.03861543 59.63413669 -31.09865883 64.90039693 -31.16015625 70.16796875 C-39.08015625 70.16796875 -47.00015625 70.16796875 -55.16015625 70.16796875 C-55.16015625 46.73796875 -55.16015625 23.30796875 -55.16015625 -0.83203125 C-47.24015625 -0.83203125 -39.32015625 -0.83203125 -31.16015625 -0.83203125 C-30.83015625 0.48796875 -30.50015625 1.80796875 -30.16015625 3.16796875 C-29.61746094 2.81863281 -29.07476563 2.46929687 -28.515625 2.109375 C-27.80019531 1.65433594 -27.08476563 1.19929688 -26.34765625 0.73046875 C-25.63996094 0.27800781 -24.93226563 -0.17445313 -24.203125 -0.640625 C-16.76759379 -4.97683345 -7.42159048 -3.60714174 0 0 Z " fill="#FF844B" transform="translate(777.16015625,307.83203125)"/>
<path d="M0 0 C0 6.6 0 13.2 0 20 C4.95 20 9.9 20 15 20 C15 27.59 15 35.18 15 43 C10.05 43 5.1 43 0 43 C0.08659423 46.95944634 0.19343089 50.91651358 0.3125 54.875 C0.33505859 56.00292969 0.35761719 57.13085938 0.38085938 58.29296875 C0.41630859 59.36933594 0.45175781 60.44570313 0.48828125 61.5546875 C0.51446533 62.54968262 0.54064941 63.54467773 0.56762695 64.56982422 C0.78165161 65.77276123 0.78165161 65.77276123 1 67 C5.48418393 69.98945595 9.65341189 69.62259378 15 70 C15 76.93 15 83.86 15 91 C9.01539646 93.99230177 -1.74102429 92.65974386 -8.203125 91.3515625 C-13.97539157 89.27992082 -17.81385794 86.22498206 -21 81 C-24.51173187 72.99332755 -24.36017406 64.97328272 -24.1875 56.375 C-24.16719727 54.43947266 -24.16719727 54.43947266 -24.14648438 52.46484375 C-24.11142444 49.30944972 -24.06228144 46.15495422 -24 43 C-27.63 43 -31.26 43 -35 43 C-35 40.69 -35 38.38 -35 36 C-36.10859375 36.51691406 -37.2171875 37.03382813 -38.359375 37.56640625 C-39.82263986 38.23237936 -41.28619699 38.89771057 -42.75 39.5625 C-43.47960937 39.90474609 -44.20921875 40.24699219 -44.9609375 40.59960938 C-45.66992188 40.91865234 -46.37890625 41.23769531 -47.109375 41.56640625 C-47.75874023 41.86490479 -48.40810547 42.16340332 -49.07714844 42.47094727 C-51.43078927 43.11852721 -52.73032047 42.8434457 -55 42 C-55.433125 41.505 -55.86625 41.01 -56.3125 40.5 C-58.89757027 38.20215976 -61.64796938 38.3162293 -65 38 C-65.99 40.475 -65.99 40.475 -67 43 C-65.88882813 43.23074219 -64.77765625 43.46148437 -63.6328125 43.69921875 C-41.87669245 48.39008391 -41.87669245 48.39008391 -35.1171875 57.25 C-31.99883044 62.13469917 -31.20483563 67.30299958 -32 73 C-33.84525317 80.13792542 -36.72890135 85.02961888 -43 89 C-52.89298458 94.35782108 -66.66905849 94.71772593 -77.5 91.9375 C-83.79739815 89.66613075 -89.06388317 85.58148911 -93.0625 80.25 C-94 78 -94 78 -94 75 C-91.0707161 73.46293927 -88.13042886 71.94824838 -85.1875 70.4375 C-84.35412109 69.99986328 -83.52074219 69.56222656 -82.66210938 69.11132812 C-81.85966797 68.70205078 -81.05722656 68.29277344 -80.23046875 67.87109375 C-79.49207764 67.48880615 -78.75368652 67.10651855 -77.99291992 66.71264648 C-76 66 -76 66 -73 67 C-72.505 67.845625 -72.01 68.69125 -71.5 69.5625 C-68.43707313 72.5488537 -67.40728356 72.3338194 -63.25 72.3125 C-61.49873926 72.23227209 -59.74784467 72.13560864 -58 72 C-58 70.68 -58 69.36 -58 68 C-59.45019531 67.52820313 -59.45019531 67.52820313 -60.9296875 67.046875 C-64.32305715 65.93686569 -67.70557267 64.79682903 -71.08496094 63.64501953 C-72.70943164 63.09786864 -74.34221447 62.57549385 -75.9765625 62.05859375 C-82.86357583 59.68118822 -87.700165 55.59967 -91 49 C-92.16125218 34.32253392 -92.16125218 34.32253392 -87 28 C-80.89087335 21.28559122 -74.79171051 18.50025723 -65.7890625 17.72265625 C-55.25936064 17.41584676 -45.94958604 19.70587666 -38 27 C-36.74609375 29.6953125 -36.74609375 29.6953125 -36 32 C-35.34 32 -34.68 32 -34 32 C-34 28.04 -34 24.08 -34 20 C-30.7 20 -27.4 20 -24 20 C-24 15.71 -24 11.42 -24 7 C-20.37609285 5.82984217 -16.75097221 4.6637259 -13.125 3.5 C-12.09246094 3.16613281 -11.05992187 2.83226562 -9.99609375 2.48828125 C-9.00996094 2.17246094 -8.02382813 1.85664063 -7.0078125 1.53125 C-6.09660645 1.23798828 -5.18540039 0.94472656 -4.24658203 0.64257812 C-2 0 -2 0 0 0 Z " fill="#FFFBF9" transform="translate(619,287)"/>
<path d="M0 0 C1.72964957 1.24618125 3.16061747 2.61870971 4.62109375 4.16796875 C6.7222942 3.1483386 8.74517625 2.0925595 10.7421875 0.87890625 C18.4425897 -3.56213515 25.52626183 -3.95694728 34.203125 -2.35546875 C40.41388015 -0.59910528 45.46046527 2.70045557 48.90625 8.23046875 C51.3390713 12.9740343 52.74739067 16.99696492 52.73461914 22.3737793 C52.73450584 23.96508919 52.73450584 23.96508919 52.73439026 25.58854675 C52.72922897 26.7323732 52.72406769 27.87619965 52.71875 29.0546875 C52.71733505 30.22683304 52.7159201 31.39897858 52.71446228 32.60664368 C52.70885763 36.35627782 52.69630431 40.1058526 52.68359375 43.85546875 C52.67857935 46.39518143 52.67401634 48.93489505 52.66992188 51.47460938 C52.65973691 57.70577053 52.64016226 63.93680306 52.62109375 70.16796875 C45.03109375 70.16796875 37.44109375 70.16796875 29.62109375 70.16796875 C29.60691406 66.97753906 29.59273437 63.78710938 29.578125 60.5 C29.54749933 57.40541032 29.50841181 54.311035 29.46850586 51.21655273 C29.44532853 49.06819251 29.43093078 46.91971871 29.42553711 44.77124023 C29.41624584 41.68010702 29.37525024 38.59075963 29.328125 35.5 C29.33205765 34.54148636 29.3359903 33.58297272 29.34004211 32.59541321 C29.2398596 28.00245189 29.1145818 25.82918772 26.29956055 22.05737305 C22.78393145 19.57743014 20.8364297 19.4781865 16.62109375 20.16796875 C14.25611936 22.0350538 12.9607866 23.48858306 11.62109375 26.16796875 C11.50361897 27.58679756 11.44423947 29.01068289 11.41577148 30.43408203 C11.39582626 31.31484406 11.37588104 32.19560608 11.35533142 33.10305786 C11.33861893 34.05518158 11.32190643 35.0073053 11.3046875 35.98828125 C11.27351585 37.44897537 11.27351585 37.44897537 11.24171448 38.93917847 C11.17620777 42.05703522 11.11732878 45.17497778 11.05859375 48.29296875 C11.0154096 50.40365479 10.97179535 52.51433208 10.92773438 54.625 C10.81971398 59.80590282 10.72064882 64.98686859 10.62109375 70.16796875 C2.70109375 70.16796875 -5.21890625 70.16796875 -13.37890625 70.16796875 C-13.42789063 66.88214844 -13.476875 63.59632813 -13.52734375 60.2109375 C-13.58133087 57.03372585 -13.63864731 53.85659055 -13.69628906 50.67944336 C-13.73460642 48.46888907 -13.76945439 46.25827183 -13.80078125 44.04760742 C-13.84637177 40.87265504 -13.90437628 37.69813703 -13.96484375 34.5234375 C-13.97639496 33.53272751 -13.98794617 32.54201752 -13.99984741 31.52128601 C-14.0197171 30.60055801 -14.03958679 29.67983002 -14.06005859 28.73120117 C-14.07338226 27.92067795 -14.08670593 27.11015472 -14.10043335 26.27507019 C-14.26114402 23.86696684 -14.26114402 23.86696684 -16.37890625 21.16796875 C-18.3890795 20.39946367 -18.3890795 20.39946367 -20.69140625 20.16796875 C-21.83029297 19.98234375 -21.83029297 19.98234375 -22.9921875 19.79296875 C-26.82712906 20.39551276 -28.04169045 22.12101127 -30.37890625 25.16796875 C-31.12648185 28.60797058 -31.10033937 31.9897984 -31.0859375 35.5 C-31.10105881 36.49174728 -31.11618011 37.48349457 -31.13175964 38.5052948 C-31.17464827 41.6639172 -31.183476 44.82158414 -31.19140625 47.98046875 C-31.21454957 50.12567646 -31.23991456 52.27086144 -31.26757812 54.41601562 C-31.33461436 59.6671873 -31.35556281 64.9156949 -31.37890625 70.16796875 C-39.29890625 70.16796875 -47.21890625 70.16796875 -55.37890625 70.16796875 C-55.37890625 46.73796875 -55.37890625 23.30796875 -55.37890625 -0.83203125 C-47.45890625 -0.83203125 -39.53890625 -0.83203125 -31.37890625 -0.83203125 C-31.04890625 0.48796875 -30.71890625 1.80796875 -30.37890625 3.16796875 C-29.8478125 2.81863281 -29.31671875 2.46929687 -28.76953125 2.109375 C-28.063125 1.65433594 -27.35671875 1.19929688 -26.62890625 0.73046875 C-25.9328125 0.27800781 -25.23671875 -0.17445313 -24.51953125 -0.640625 C-17.13538275 -4.75041568 -7.20485222 -4.04401383 0 0 Z " fill="#FFFCFB" transform="translate(542.37890625,394.83203125)"/>
<path d="M0 0 C1.80859375 1.63671875 1.80859375 1.63671875 3 3 C3.33 1.35 3.66 -0.3 4 -2 C11.92 -2 19.84 -2 28 -2 C28 21.43 28 44.86 28 69 C20.08 69 12.16 69 4 69 C3.67 67.35 3.34 65.7 3 64 C2.34 64.598125 1.68 65.19625 1 65.8125 C-6.21875716 71.0761771 -13.25959761 71.97238358 -22 71 C-31.45124004 68.88574124 -38.41685898 64.16242372 -43.8125 56.125 C-47.98523244 48.65007793 -49.54147279 41.58744979 -49.4375 33.0625 C-49.42920166 32.18295654 -49.42090332 31.30341309 -49.41235352 30.3972168 C-49.13166481 19.63015776 -45.55718922 11.74982346 -38 4 C-26.50537131 -5.35190174 -13.35139092 -6.84745435 0 0 Z " fill="#FFFCFB" transform="translate(685,309)"/>
<path d="M0 0 C1.35418267 0.97157969 2.69422036 1.96427933 4 3 C4 1.35 4 -0.3 4 -2 C11.92 -2 19.84 -2 28 -2 C28 21.43 28 44.86 28 69 C20.08 69 12.16 69 4 69 C3.67 67.35 3.34 65.7 3 64 C2.34 64.598125 1.68 65.19625 1 65.8125 C-6.38251569 71.19558435 -14.03643273 72.28050961 -23 71 C-29.63812259 68.66263289 -35.48703832 65.50017204 -40 60 C-40.680625 59.236875 -41.36125 58.47375 -42.0625 57.6875 C-49.71908036 47.06708209 -50.00130431 35.70649579 -49 23 C-47.10737345 13.79909865 -41.104176 5.91262724 -33.5 0.5625 C-22.88826395 -5.87588103 -10.86799355 -5.88682984 0 0 Z " fill="#FF854B" transform="translate(450,396)"/>
<path d="M0 0 C3.0625 2.1875 3.0625 2.1875 5 4 C5.33 2.35 5.66 0.7 6 -1 C13.59 -1 21.18 -1 29 -1 C29 22.43 29 45.86 29 70 C21.41 70 13.82 70 6 70 C6 68.02 6 66.04 6 64 C5.34 64 4.68 64 4 64 C4 64.66 4 65.32 4 66 C2.3970947 66.81498562 0.79262722 67.62689927 -0.8125 68.4375 C-1.70582031 68.88996094 -2.59914063 69.34242188 -3.51953125 69.80859375 C-9.90886129 72.87748455 -16.82204329 72.95063653 -23.6953125 71.38671875 C-34.98823518 67.36870394 -40.69587825 59.74329011 -45.6875 49.3671875 C-50.08900763 38.07522446 -48.6423514 25.96629758 -44 15 C-39.61648394 7.28147461 -32.82462576 1.05155385 -24.5859375 -2.30859375 C-16.47198631 -4.47803387 -7.53182074 -3.74242236 0 0 Z " fill="#FFFDFC" transform="translate(648,395)"/>
<path d="M0 0 C6.51610411 4.67168849 10.20056525 11.18224194 11.51678467 19.11437988 C11.68758059 22.34929142 11.67731188 25.52767372 11.5859375 28.765625 C11.57744781 29.92503601 11.56895813 31.08444702 11.56021118 32.2789917 C11.52695777 35.93699017 11.45172695 39.59268194 11.375 43.25 C11.34486436 45.7486658 11.31749493 48.24736659 11.29296875 50.74609375 C11.23238933 56.83230568 11.11491786 62.91360974 11 69 C3.41 69 -4.18 69 -12 69 C-12.01417969 65.88175781 -12.02835937 62.76351562 -12.04296875 59.55078125 C-12.07359583 56.52568785 -12.11268295 53.50081363 -12.15258789 50.47583008 C-12.17576296 48.37597422 -12.19016244 46.2760022 -12.19555664 44.17602539 C-12.20484963 41.15437475 -12.24584846 38.13454983 -12.29296875 35.11328125 C-12.2890361 34.17664139 -12.28510345 33.24000153 -12.28105164 32.27497864 C-12.38313298 27.69900793 -12.51063206 25.63759868 -15.37207031 21.90942383 C-18.37356733 19.72857023 -19.88570841 19.32386243 -23.5625 19.375 C-24.49191406 19.36210937 -25.42132813 19.34921875 -26.37890625 19.3359375 C-30.15403571 20.29237864 -30.98317792 21.67435839 -33 25 C-33.60426891 28.36833652 -33.60489443 31.69756124 -33.609375 35.11328125 C-33.62591125 36.08283249 -33.64244751 37.05238373 -33.65948486 38.05131531 C-33.70794745 41.13844143 -33.72933225 44.22507499 -33.75 47.3125 C-33.77816109 49.40952997 -33.80808871 51.506537 -33.83984375 53.60351562 C-33.91702251 58.73590328 -33.95755881 63.86673784 -34 69 C-41.92 69 -49.84 69 -58 69 C-58 45.57 -58 22.14 -58 -2 C-50.08 -2 -42.16 -2 -34 -2 C-33.67 -0.35 -33.34 1.3 -33 3 C-32.154375 2.21625 -31.30875 1.4325 -30.4375 0.625 C-21.74301031 -6.51256944 -9.22142973 -5.63725138 0 0 Z " fill="#FFFCFB" transform="translate(509,309)"/>
<path d="M0 0 C0 6.6 0 13.2 0 20 C4.95 20 9.9 20 15 20 C15 27.26 15 34.52 15 42 C10.05 42 5.1 42 0 42 C0.0598202 45.93915989 0.14678033 49.87444502 0.25 53.8125 C0.26417969 54.93205078 0.27835938 56.05160156 0.29296875 57.20507812 C0.32519531 58.27822266 0.35742188 59.35136719 0.390625 60.45703125 C0.41157227 61.44678955 0.43251953 62.43654785 0.45410156 63.45629883 C0.82797606 66.55461963 0.82797606 66.55461963 5 69 C8.3 69.33 11.6 69.66 15 70 C15 76.93 15 83.86 15 91 C-9.52273802 92.10536549 -9.52273802 92.10536549 -16.3203125 86.8515625 C-21.95444879 80.64090994 -23.13112846 73.99534358 -23.09765625 65.828125 C-23.0962413 65.1457074 -23.09482635 64.46328979 -23.09336853 63.76019287 C-23.08779084 61.59008316 -23.07524254 59.4200783 -23.0625 57.25 C-23.05748211 55.77474108 -23.05291971 54.29948053 -23.04882812 52.82421875 C-23.03782875 49.21611202 -23.02057953 45.60806625 -23 42 C-26.63 42 -30.26 42 -34 42 C-34 34.74 -34 27.48 -34 20 C-30.37 20 -26.74 20 -23 20 C-23 15.71 -23 11.42 -23 7 C-5.15 0 -5.15 0 0 0 Z " fill="#FFFDFD" transform="translate(767,374)"/>
<path d="M0 0 C6.35963355 2.84715902 10.84797194 7.05529637 14.1640625 13.19921875 C14.93790214 16.01487624 15.11046117 18.2511457 15.1640625 21.19921875 C12.11725189 23.23042582 11.56287926 23.4458175 8.15234375 23.39453125 C7.39501953 23.38808594 6.63769531 23.38164062 5.85742188 23.375 C4.67889648 23.34986328 4.67889648 23.34986328 3.4765625 23.32421875 C2.67927734 23.31519531 1.88199219 23.30617187 1.06054688 23.296875 C-0.9050765 23.2733346 -2.87054525 23.23746422 -4.8359375 23.19921875 C-4.8359375 19.56921875 -4.8359375 15.93921875 -4.8359375 12.19921875 C-5.4959375 12.19921875 -6.1559375 12.19921875 -6.8359375 12.19921875 C-6.8359375 16.81921875 -6.8359375 21.43921875 -6.8359375 26.19921875 C-5.73894531 26.16441406 -4.64195312 26.12960938 -3.51171875 26.09375 C-2.05730705 26.0656001 -0.6028787 26.03830123 0.8515625 26.01171875 C1.57279297 25.98658203 2.29402344 25.96144531 3.03710938 25.93554688 C7.63995588 25.87249418 10.46713483 26.42105417 14.1640625 29.19921875 C13.32047089 41.57189571 6.34856898 51.54618953 -0.8359375 61.19921875 C-1.51785156 62.12992188 -2.19976563 63.060625 -2.90234375 64.01953125 C-6.32942816 68.58420735 -6.32942816 68.58420735 -7.8359375 70.19921875 C-8.4959375 70.19921875 -9.1559375 70.19921875 -9.8359375 70.19921875 C-11.90438398 67.84162558 -13.57775882 65.16832734 -15.3359375 62.57421875 C-15.83480469 61.86136719 -16.33367188 61.14851563 -16.84765625 60.4140625 C-19.55892315 56.45255993 -21.5910098 52.89733876 -22.8359375 48.19921875 C-21.8359375 47.19921875 -21.8359375 47.19921875 -19.1484375 47.06640625 C-18.0553125 47.06898438 -16.9621875 47.0715625 -15.8359375 47.07421875 C-14.7428125 47.07164062 -13.6496875 47.0690625 -12.5234375 47.06640625 C-9.8359375 47.19921875 -9.8359375 47.19921875 -8.8359375 48.19921875 C-8.79500813 50.53219308 -8.79352027 52.866271 -8.8359375 55.19921875 C-8.1759375 55.19921875 -7.5159375 55.19921875 -6.8359375 55.19921875 C-6.8359375 51.56921875 -6.8359375 47.93921875 -6.8359375 44.19921875 C-13.1059375 44.19921875 -19.3759375 44.19921875 -25.8359375 44.19921875 C-27.1559375 41.88921875 -28.4759375 39.57921875 -29.8359375 37.19921875 C-30.2278125 36.51859375 -30.6196875 35.83796875 -31.0234375 35.13671875 C-33.71970311 28.7071623 -34.26885188 20.01120852 -31.8125 13.4765625 C-25.1907615 1.34890332 -13.39101318 -3.78120895 0 0 Z " fill="#FFFBF9" transform="translate(608.8359375,161.80078125)"/>
<path d="M0 0 C0 8.25 0 16.5 0 25 C-3.63 25.66 -7.26 26.32 -11 27 C-15.2216543 29.98763227 -18.10610727 32.17373903 -20 37 C-20.23582402 39.71215682 -20.37196504 42.33201064 -20.4140625 45.046875 C-20.43342865 45.81807678 -20.4527948 46.58927856 -20.4727478 47.3838501 C-20.53237077 49.83912205 -20.57885914 52.29444133 -20.625 54.75 C-20.66319575 56.41798882 -20.70224841 58.08595826 -20.7421875 59.75390625 C-20.83966639 63.83583474 -20.91936979 67.91756492 -21 72 C-28.59 72 -36.18 72 -44 72 C-44 48.57 -44 25.14 -44 1 C-36.41 1 -28.82 1 -21 1 C-20.67 4.3 -20.34 7.6 -20 11 C-19.505 10.113125 -19.01 9.22625 -18.5 8.3125 C-13.61451627 1.07028645 -8.58396213 0 0 0 Z " fill="#FFFEFD" transform="translate(731,393)"/>
<path d="M0 0 C7.92 0 15.84 0 24 0 C24 23.43 24 46.86 24 71 C16.08 71 8.16 71 0 71 C0 47.57 0 24.14 0 0 Z " fill="#FFFAF8" transform="translate(418,307)"/>
<path d="M0 0 C1.11774307 -0.00191345 2.23548615 -0.0038269 3.38710022 -0.00579834 C5.73943305 -0.00715295 8.09177354 -0.00350738 10.4440918 0.00488281 C14.02084355 0.01558219 17.59709193 0.0049677 21.17382812 -0.0078125 C23.47005318 -0.00649058 25.76627792 -0.00392752 28.0625 0 C29.12009018 -0.00404846 30.17768036 -0.00809692 31.26731873 -0.01226807 C41.33067916 0.05046728 51.91656227 0.88344793 59.8203125 7.765625 C63.87265042 12.06687803 65.64297874 16.60389455 67.09765625 22.265625 C67.27020432 22.86375504 67.44275238 23.46188507 67.62052917 24.07814026 C68.16226552 26.56183914 68.24664647 28.83635711 68.2746582 31.37866211 C68.29391106 32.90691872 68.29391106 32.90691872 68.31355286 34.46604919 C68.32093979 35.56393265 68.32832672 36.6618161 68.3359375 37.79296875 C68.34400925 38.93286758 68.35208099 40.07276642 68.36039734 41.24720764 C68.37422938 43.6638945 68.38495546 46.08060082 68.39282227 48.49731445 C68.40430316 50.95180036 68.42469252 53.40626207 68.4543457 55.8605957 C68.84910475 88.54179333 68.84910475 88.54179333 60.09765625 98.265625 C51.17799822 105.77805543 39.4065562 106.73109727 28.19140625 106.6640625 C27.10484741 106.66693268 26.01828857 106.66980286 24.89880371 106.67276001 C22.61986769 106.67478579 20.34091368 106.66936109 18.06201172 106.65673828 C14.60604366 106.64066401 11.15124489 106.65663889 7.6953125 106.67578125 C5.46484121 106.67379856 3.23437064 106.66995434 1.00390625 106.6640625 C-0.01207642 106.67013519 -1.02805908 106.67620789 -2.0748291 106.6824646 C-11.60342653 106.59065168 -21.67859544 105.44633304 -29.21875 99.12890625 C-37.26756563 90.22105229 -38.21272917 78.69510855 -38.203125 67.27734375 C-38.20741013 66.13836136 -38.21169525 64.99937897 -38.21611023 63.82588196 C-38.22183298 61.42469953 -38.22236901 59.02349976 -38.21801758 56.62231445 C-38.21486277 52.97511773 -38.23832602 49.32873699 -38.26367188 45.68164062 C-38.26594578 43.33854268 -38.26664794 40.99544258 -38.265625 38.65234375 C-38.27483475 37.57490402 -38.28404449 36.49746429 -38.29353333 35.38737488 C-38.23001934 24.83927758 -36.63046417 14.95877655 -28.90234375 7.265625 C-20.41373408 0.24550899 -10.61394075 -0.04055261 0 0 Z M-28.45703125 11.453125 C-34.77627433 19.37779741 -35.21363258 29.59680594 -35.16796875 39.375 C-35.17083893 40.76890961 -35.17083893 40.76890961 -35.17376709 42.190979 C-35.17511855 44.14392368 -35.17149536 46.09687765 -35.16308594 48.04980469 C-35.1524208 50.99435265 -35.16299178 53.93828377 -35.17578125 56.8828125 C-35.97527491 77.33422158 -35.97527491 77.33422158 -27.90234375 95.265625 C-19.42290026 103.12462141 -9.71094131 102.43031852 1.26953125 102.50390625 C2.42833801 102.511978 3.58714478 102.52004974 4.78106689 102.52836609 C7.2251234 102.54214651 9.66919865 102.55289544 12.11328125 102.56079102 C14.59576109 102.57231403 17.0782161 102.59277067 19.56054688 102.62231445 C23.172044 102.66522855 26.78281003 102.68119172 30.39453125 102.69140625 C31.48868347 102.70891434 32.58283569 102.72642242 33.71014404 102.74446106 C41.74999672 102.72215331 50.61778118 101.81655973 57.13519287 96.65058899 C65.58503551 87.93754482 65.2457438 74.55307303 65.30078125 63.21875 C65.30648132 62.28569031 65.3121814 61.35263062 65.3180542 60.39129639 C65.32744272 58.42819328 65.33401349 56.46507485 65.33789062 54.50195312 C65.3475848 51.53747369 65.37866284 48.57369204 65.41015625 45.609375 C65.87525444 27.73650109 65.87525444 27.73650109 59.03515625 11.703125 C50.95551131 3.58924428 39.76755021 3.11190945 28.9765625 3.0625 C27.99960922 3.05679993 27.02265594 3.05109985 26.01609802 3.04522705 C23.94930087 3.03580179 21.88248886 3.02925293 19.81567383 3.02539062 C16.70170678 3.01575359 13.58841987 2.98473478 10.47460938 2.953125 C-10.59035302 2.15958077 -10.59035302 2.15958077 -28.45703125 11.453125 Z " fill="#FFEBE2" transform="translate(584.90234375,143.734375)"/>
<path d="M0 0 C4.84115976 2.33092877 7.70301121 5.14098526 10 10 C10.78549682 15.37824864 10.6984307 19.6031386 8.25 24.5 C4.87843125 28.2461875 2.10701989 30.63899388 -3.05078125 31.23828125 C-8.56058152 31.41908644 -11.75244276 30.85243563 -16 27 C-19.37233546 22.47397083 -20.72447676 18.94665725 -20.453125 13.27734375 C-19.43882556 8.17961468 -16.58492384 4.44907323 -12.8125 1 C-8.50641427 -0.5310527 -4.51255311 -0.64465044 0 0 Z " fill="#FF5607" transform="translate(679,327)"/>
<path d="M0 0 C4.71878688 1.69164058 7.20582817 3.86048618 10 8 C11.75138012 13.25414036 11.98290651 18.74824575 9.5 23.8125 C6.89621157 27.75485572 3.45332983 29.6316132 -1 31 C-5.32385205 31.78541882 -8.36648985 31.33468461 -12.3125 29.25 C-16.32385763 25.89165408 -18.67717611 23.07476523 -19.23828125 17.73046875 C-19.40730774 11.93908745 -19.05371947 8.48042678 -15 4 C-10.21212087 -0.231149 -6.14411195 -0.90451917 0 0 Z " fill="#FF5506" transform="translate(643,414)"/>
<path d="M0 0 C4.84115976 2.33092877 7.70301121 5.14098526 10 10 C10.77379561 15.29813119 10.67768515 19.56643525 8.375 24.4375 C4.49992402 28.61850303 1.36332383 31.2040396 -4.4375 31.5 C-9.30456984 31.25377387 -12.1208478 29.94815567 -16 27 C-20.04982059 21.77442504 -19.78078193 15.32433365 -19 9 C-15.0042437 0.56451447 -8.80625674 -1.25803668 0 0 Z " fill="#FF5201" transform="translate(444,414)"/>
<path d="M0 0 C4.29595601 1.73609768 7.57061946 4.0109284 10 8 C10.73942261 12.45828338 10.52155903 16.66712693 8.875 20.875 C5.30051279 24.92608551 2.00110771 27.22660114 -3.4375 27.625 C-7.96621609 27.41845383 -10.44794157 25.78481817 -13.625 22.64453125 C-16.21227712 19.55008902 -16.87149551 17.00661852 -17.375 13.0625 C-16.73312959 7.82055828 -14.13727699 4.96036723 -10.1875 1.625 C-6.33997539 -0.33648313 -4.27096387 -0.59943353 0 0 Z " fill="#FFFBF9" transform="translate(433,274)"/>
<path d="M0 0 C1.5126368 -0.00945648 1.5126368 -0.00945648 3.05583191 -0.019104 C4.13609146 -0.01505554 5.21635101 -0.01100708 6.3293457 -0.00683594 C7.45274857 -0.00874939 8.57615143 -0.01066284 9.7335968 -0.01263428 C12.10983504 -0.01399414 14.48608076 -0.01031162 16.86230469 -0.00195312 C20.47453823 0.00869886 24.08626874 -0.00182954 27.69848633 -0.01464844 C30.01294054 -0.01332583 32.32739444 -0.01076135 34.6418457 -0.00683594 C35.7119841 -0.0108844 36.7821225 -0.01493286 37.88468933 -0.019104 C47.98287833 0.04305489 58.60570523 0.84976879 66.5402832 7.75878906 C70.59262113 12.06004209 72.36294944 16.59705861 73.81762695 22.25878906 C73.99017502 22.8569191 74.16272308 23.45504913 74.34049988 24.07130432 C74.88223622 26.5550032 74.96661717 28.82952117 74.99462891 31.37182617 C75.01388176 32.90008278 75.01388176 32.90008278 75.03352356 34.45921326 C75.04091049 35.55709671 75.04829742 36.65498016 75.0559082 37.78613281 C75.06397995 38.92603165 75.0720517 40.06593048 75.08036804 41.2403717 C75.09420008 43.65705856 75.10492617 46.07376488 75.11279297 48.49047852 C75.12427386 50.94496442 75.14466322 53.39942614 75.17431641 55.85375977 C75.52388999 84.79415587 75.52388999 84.79415587 70.81762695 92.25878906 C68.67822266 93.06323242 68.67822266 93.06323242 66.81762695 93.25878906 C67.02258789 92.56914062 67.22754883 91.87949219 67.4387207 91.16894531 C67.70813477 90.22921875 67.97754883 89.28949219 68.25512695 88.32128906 C68.52196289 87.40476562 68.78879883 86.48824219 69.0637207 85.54394531 C70.75502522 78.17406399 70.98415919 70.74776887 71.02075195 63.21191406 C71.02645203 62.27885437 71.0321521 61.34579468 71.0380249 60.38446045 C71.04741342 58.42135734 71.0539842 56.45823891 71.05786133 54.49511719 C71.06755551 51.53063776 71.09863354 48.5668561 71.13012695 45.60253906 C71.60818796 28.08990008 71.60818796 28.08990008 65.25512695 12.19628906 C59.48621133 6.39860079 50.86192334 4.46901476 42.93215942 4.13853455 C41.43324661 4.14186546 41.43324661 4.14186546 39.90405273 4.14526367 C38.19295822 4.14537697 38.19295822 4.14537697 36.44729614 4.14549255 C34.62353958 4.15323448 34.62353958 4.15323448 32.76293945 4.16113281 C31.50625458 4.16254776 30.2495697 4.16396271 28.95480347 4.16542053 C25.63070756 4.17005832 22.30668154 4.17902726 18.98260498 4.19012451 C15.58386841 4.20039506 12.1851246 4.20493019 8.78637695 4.20996094 C2.13010778 4.22097207 -4.5261286 4.23769685 -11.18237305 4.25878906 C-10.18237305 2.25878906 -10.18237305 2.25878906 -7.94377136 1.14996338 C-5.11797339 0.23800563 -2.95812 0.00533356 0 0 Z " fill="#FFF3EE" transform="translate(578.182373046875,143.7412109375)"/>
<path d="M0 0 C4.29 0 8.58 0 13 0 C13 7.59 13 15.18 13 23 C8.71 23 4.42 23 0 23 C0 15.41 0 7.82 0 0 Z " fill="#FF8349" transform="translate(386,394)"/>
<path d="M0 0 C3.96 0 7.92 0 12 0 C12 7.26 12 14.52 12 22 C8.04 22.495 8.04 22.495 4 23 C2.08657755 15.32224198 0.58921432 7.89547185 0 0 Z " fill="#FE844B" transform="translate(387,443)"/>
<path d="M0 0 C-0.99 0.33 -1.98 0.66 -3 1 C-1.35 1.33 0.3 1.66 2 2 C2 2.33 2 2.66 2 3 C-2.455 3.495 -2.455 3.495 -7 4 C-7 2.68 -7 1.36 -7 0 C-3.86650268 -1.04449911 -3.01031744 -0.93423645 0 0 Z " fill="#FFD3BE" transform="translate(571,146)"/>
</svg>
